# xmcd
#
# Track frame offsets: 
#        150
#        17692
#        36775
#        54240
#        74415
#        85392
#        107394
#        123619
#        142408
#        154577
#        171382
#        191835
#        210362
#        227655
#        243325
#        258912
#        278065
#        289026
#        303281
#        324289
#
# Disc length: 4632 seconds
#
# Revision: 0
# Processed by: cddbd v1.5.2PL0 Copyright (c) Steve Scherf et al.
# Submitted via: ExactAudioCopy v1.0b4
#
DISCID=19121614
DTITLE=Natalie Cole - Natalie Cole
DYEAR=1997
DGENRE=Blues
TTITLE0=Miss you like crazy
TTITLE1=Starting over again
TTITLE2=Someone that I used to love
TTITLE3=I live for your love
TTITLE4=Inseparable
TTITLE5=Both sides now
TTITLE6=Smile
TTITLE7=When I fall in love
TTITLE8=As the time goes by
TTITLE9=Mona lisa
TTITLE10=Too young
TTITLE11=I wish you love
TTITLE12=Let there be love
TTITLE13=Unforgettable (with Nat King Cole)
TTITLE14=Our love's here to stay
TTITLE15=The very thought of you
TTITLE16=Orange colored sky
TTITLE17=They can't take that away
TTITLE18=More than the stars
TTITLE19=This will be (extended version)
EXTD=
EXTT0=
EXTT1=
EXTT2=
EXTT3=
EXTT4=
EXTT5=
EXTT6=
EXTT7=
EXTT8=
EXTT9=
EXTT10=
EXTT11=
EXTT12=
EXTT13=
EXTT14=
EXTT15=
EXTT16=
EXTT17=
EXTT18=
EXTT19=
PLAYORDER=
